<?xml version="1.0" encoding="UTF-8" standalone="no"?>
<!-- Created with Inkscape (http://www.inkscape.org/) -->

<svg
   width="23.853668mm"
   height="23.853668mm"
   viewBox="0 0 23.853668 23.853668"
   version="1.1"
   id="svg5"
   inkscape:version="1.1.2 (0a00cf5339, 2022-02-04)"
   sodipodi:docname="logo.svg"
   xmlns:inkscape="http://www.inkscape.org/namespaces/inkscape"
   xmlns:sodipodi="http://sodipodi.sourceforge.net/DTD/sodipodi-0.dtd"
   xmlns="http://www.w3.org/2000/svg"
   xmlns:svg="http://www.w3.org/2000/svg">
  <sodipodi:namedview
     id="namedview7"
     pagecolor="#ffffff"
     bordercolor="#666666"
     borderopacity="1.0"
     inkscape:pageshadow="2"
     inkscape:pageopacity="0.0"
     inkscape:pagecheckerboard="0"
     inkscape:document-units="mm"
     showgrid="false"
     inkscape:snap-page="false"
     showguides="true"
     inkscape:guide-bbox="true"
     inkscape:snap-text-baseline="false"
     inkscape:snap-center="false"
     inkscape:snap-object-midpoints="true"
     inkscape:snap-grids="false"
     inkscape:zoom="6.2217172"
     inkscape:cx="45.968017"
     inkscape:cy="35.761831"
     inkscape:window-width="1858"
     inkscape:window-height="1136"
     inkscape:window-x="62"
     inkscape:window-y="27"
     inkscape:window-maximized="1"
     inkscape:current-layer="layer1"
     fit-margin-top="0"
     fit-margin-left="0"
     fit-margin-right="0"
     fit-margin-bottom="0">
    <sodipodi:guide
       position="24.175851,43.403588"
       orientation="0,-1"
       id="guide26383" />
    <sodipodi:guide
       position="-58.785507,-6.5248624"
       orientation="1,0"
       id="guide26385" />
    <sodipodi:guide
       position="27.398414,-24.784653"
       orientation="0,-1"
       id="guide26387" />
  </sodipodi:namedview>
  <defs
     id="defs2" />
  <g
     inkscape:label="Ebene 1"
     inkscape:groupmode="layer"
     id="layer1"
     transform="translate(-31.44404,-81.22229)">
    <text
       xml:space="preserve"
       style="font-style:normal;font-weight:normal;font-size:10.5833px;line-height:1.25;font-family:sans-serif;letter-spacing:0px;word-spacing:0px;fill:#000000;fill-opacity:1;stroke:none;stroke-width:0.264583"
       x="81.807312"
       y="122.54447"
       id="text5867"><tspan
         sodipodi:role="line"
         id="tspan5865"
         style="stroke-width:0.264583"
         x="81.807312"
         y="122.54447" /></text>
    <rect
       style="fill:#000080;stroke-width:0.358925"
       id="rect79737"
       width="23.854"
       height="23.853668"
       x="31.44404"
       y="81.22229"
       ry="2.0462725" />
    <g
       id="g51983"
       transform="translate(0,0.68815003)">
      <g
         aria-label="GCR"
         transform="matrix(0.86087865,0,0,1.0466063,2.2027807,4.2577645)"
         id="text4766"
         style="font-size:8.27446px;line-height:1.25;letter-spacing:0px;word-spacing:0px;stroke-width:0.206861">
        <path
           d="m 37.720359,82.931467 q -0.193932,0 -0.30706,-0.105047 -0.113127,-0.105047 -0.113127,-0.242416 0,-0.137369 0.113127,-0.242415 0.113128,-0.105047 0.30706,-0.105047 h 3.652399 q 0.193932,0 0.30706,0.105047 0.113127,0.105046 0.113127,0.242415 0,0.137369 -0.113127,0.242416 -0.113128,0.105047 -0.30706,0.105047 z M 36.686052,81.89716 q -0.193933,0 -0.30706,-0.105047 -0.113128,-0.105047 -0.113128,-0.242416 0,-0.137369 0.113128,-0.242416 0.113127,-0.105047 0.30706,-0.105047 h 1.583783 q 0.193933,0 0.30706,0.105047 0.113127,0.105047 0.113127,0.242416 0,0.137369 -0.113127,0.242416 -0.113127,0.105047 -0.30706,0.105047 z m 4.13723,0 q -0.193933,0 -0.30706,-0.105047 -0.113128,-0.105047 -0.113128,-0.242416 0,-0.137369 0.113128,-0.242416 0.113127,-0.105047 0.30706,-0.105047 h 1.583783 q 0.193933,0 0.30706,0.105047 0.113127,0.105047 0.113127,0.242416 0,0.137369 -0.113127,0.242416 -0.113127,0.105047 -0.30706,0.105047 z m -4.13723,-1.034308 q -0.193933,0 -0.30706,-0.105047 -0.113128,-0.105047 -0.113128,-0.242416 0,-0.137369 0.113128,-0.242415 0.113127,-0.105047 0.30706,-0.105047 h 1.583783 q 0.193933,0 0.30706,0.105047 0.113127,0.105046 0.113127,0.242415 0,0.137369 -0.113127,0.242416 -0.113127,0.105047 -0.30706,0.105047 z m 4.13723,0 q -0.193933,0 -0.30706,-0.105047 -0.113128,-0.105047 -0.113128,-0.242416 0,-0.137369 0.113128,-0.242415 0.113127,-0.105047 0.30706,-0.105047 h 1.583783 q 0.193933,0 0.30706,0.105047 0.113127,0.105046 0.113127,0.242415 0,0.137369 -0.113127,0.242416 -0.113127,0.105047 -0.30706,0.105047 z m -4.13723,-1.034307 q -0.193933,0 -0.30706,-0.105047 -0.113128,-0.105047 -0.113128,-0.242416 0,-0.137369 0.113128,-0.242416 0.113127,-0.105047 0.30706,-0.105047 h 1.583783 q 0.193933,0 0.30706,0.105047 0.113127,0.105047 0.113127,0.242416 0,0.137369 -0.113127,0.242416 -0.113127,0.105047 -0.30706,0.105047 z m 3.102922,0 q -0.193932,0 -0.30706,-0.105047 -0.113127,-0.105047 -0.113127,-0.242416 0,-0.137369 0.113127,-0.242416 0.113128,-0.105047 0.30706,-0.105047 h 2.618091 q 0.193933,0 0.30706,0.105047 0.113127,0.105047 0.113127,0.242416 0,0.137369 -0.113127,0.242416 -0.113127,0.105047 -0.30706,0.105047 z m -3.102922,-1.034308 q -0.193933,0 -0.30706,-0.105047 -0.113128,-0.105047 -0.113128,-0.242416 0,-0.137368 0.113128,-0.242415 0.113127,-0.105047 0.30706,-0.105047 h 1.583783 q 0.193933,0 0.30706,0.105047 0.113127,0.105047 0.113127,0.242415 0,0.137369 -0.113127,0.242416 -0.113127,0.105047 -0.30706,0.105047 z m 0,-1.034307 q -0.193933,0 -0.30706,-0.105047 -0.113128,-0.105047 -0.113128,-0.242416 0,-0.137369 0.113128,-0.242416 0.113127,-0.105047 0.30706,-0.105047 h 1.583783 q 0.193933,0 0.30706,0.105047 0.113127,0.105047 0.113127,0.242416 0,0.137369 -0.113127,0.242416 -0.113127,0.105047 -0.30706,0.105047 z m 4.13723,0 q -0.193933,0 -0.30706,-0.105047 -0.113128,-0.105047 -0.113128,-0.242416 0,-0.137369 0.113128,-0.242416 0.113127,-0.105047 0.30706,-0.105047 h 1.583783 q 0.193933,0 0.30706,0.105047 0.113127,0.105047 0.113127,0.242416 0,0.137369 -0.113127,0.242416 -0.113127,0.105047 -0.30706,0.105047 z m -3.102923,-1.034308 q -0.193932,0 -0.30706,-0.105047 -0.113127,-0.105047 -0.113127,-0.242415 0,-0.137369 0.113127,-0.242416 0.113128,-0.105047 0.30706,-0.105047 h 3.652399 q 0.193932,0 0.30706,0.105047 0.113127,0.105047 0.113127,0.242416 0,0.137368 -0.113127,0.242415 -0.113128,0.105047 -0.30706,0.105047 z"
           style="fill:#ff6600"
           id="path51907" />
        <path
           d="m 45.994819,82.931467 q -0.193933,0 -0.30706,-0.105047 -0.113127,-0.105047 -0.113127,-0.242416 0,-0.137369 0.113127,-0.242415 0.113127,-0.105047 0.30706,-0.105047 h 3.652398 q 0.193933,0 0.30706,0.105047 0.113128,0.105046 0.113128,0.242415 0,0.137369 -0.113128,0.242416 -0.113127,0.105047 -0.30706,0.105047 z M 44.960512,81.89716 q -0.193933,0 -0.30706,-0.105047 -0.113128,-0.105047 -0.113128,-0.242416 0,-0.137369 0.113128,-0.242416 0.113127,-0.105047 0.30706,-0.105047 h 1.583783 q 0.193933,0 0.30706,0.105047 0.113127,0.105047 0.113127,0.242416 0,0.137369 -0.113127,0.242416 -0.113127,0.105047 -0.30706,0.105047 z m 4.13723,0 q -0.193933,0 -0.307061,-0.105047 -0.113127,-0.105047 -0.113127,-0.242416 0,-0.137369 0.113127,-0.242416 0.113128,-0.105047 0.307061,-0.105047 h 1.583783 q 0.193932,0 0.30706,0.105047 0.113127,0.105047 0.113127,0.242416 0,0.137369 -0.113127,0.242416 -0.113128,0.105047 -0.30706,0.105047 z m -4.13723,-1.034308 q -0.193933,0 -0.30706,-0.105047 -0.113128,-0.105047 -0.113128,-0.242416 0,-0.137369 0.113128,-0.242415 0.113127,-0.105047 0.30706,-0.105047 h 1.583783 q 0.193933,0 0.30706,0.105047 0.113127,0.105046 0.113127,0.242415 0,0.137369 -0.113127,0.242416 -0.113127,0.105047 -0.30706,0.105047 z m 0,-1.034307 q -0.193933,0 -0.30706,-0.105047 -0.113128,-0.105047 -0.113128,-0.242416 0,-0.137369 0.113128,-0.242416 0.113127,-0.105047 0.30706,-0.105047 h 1.583783 q 0.193933,0 0.30706,0.105047 0.113127,0.105047 0.113127,0.242416 0,0.137369 -0.113127,0.242416 -0.113127,0.105047 -0.30706,0.105047 z m 0,-1.034308 q -0.193933,0 -0.30706,-0.105047 -0.113128,-0.105047 -0.113128,-0.242416 0,-0.137368 0.113128,-0.242415 0.113127,-0.105047 0.30706,-0.105047 h 1.583783 q 0.193933,0 0.30706,0.105047 0.113127,0.105047 0.113127,0.242415 0,0.137369 -0.113127,0.242416 -0.113127,0.105047 -0.30706,0.105047 z m 0,-1.034307 q -0.193933,0 -0.30706,-0.105047 -0.113128,-0.105047 -0.113128,-0.242416 0,-0.137369 0.113128,-0.242416 0.113127,-0.105047 0.30706,-0.105047 h 1.583783 q 0.193933,0 0.30706,0.105047 0.113127,0.105047 0.113127,0.242416 0,0.137369 -0.113127,0.242416 -0.113127,0.105047 -0.30706,0.105047 z m 4.13723,0 q -0.193933,0 -0.307061,-0.105047 -0.113127,-0.105047 -0.113127,-0.242416 0,-0.137369 0.113127,-0.242416 0.113128,-0.105047 0.307061,-0.105047 h 1.583783 q 0.193932,0 0.30706,0.105047 0.113127,0.105047 0.113127,0.242416 0,0.137369 -0.113127,0.242416 -0.113128,0.105047 -0.30706,0.105047 z m -3.102923,-1.034308 q -0.193933,0 -0.30706,-0.105047 -0.113127,-0.105047 -0.113127,-0.242415 0,-0.137369 0.113127,-0.242416 0.113127,-0.105047 0.30706,-0.105047 h 3.652398 q 0.193933,0 0.30706,0.105047 0.113128,0.105047 0.113128,0.242416 0,0.137368 -0.113128,0.242415 -0.113127,0.105047 -0.30706,0.105047 z"
           style="fill:#00ccff"
           id="path51909" />
        <path
           d="m 53.234971,82.931467 q -0.193932,0 -0.30706,-0.105047 -0.113127,-0.105047 -0.113127,-0.242416 0,-0.137369 0.113127,-0.242415 0.113128,-0.105047 0.30706,-0.105047 h 1.583784 q 0.193932,0 0.30706,0.105047 0.113127,0.105046 0.113127,0.242415 0,0.137369 -0.113127,0.242416 -0.113128,0.105047 -0.30706,0.105047 z m 4.13723,0 q -0.193932,0 -0.30706,-0.105047 -0.113127,-0.105047 -0.113127,-0.242416 0,-0.137369 0.113127,-0.242415 0.113128,-0.105047 0.30706,-0.105047 h 1.583784 q 0.193932,0 0.30706,0.105047 0.113127,0.105046 0.113127,0.242415 0,0.137369 -0.113127,0.242416 -0.113128,0.105047 -0.30706,0.105047 z m -4.13723,-1.034307 q -0.193932,0 -0.30706,-0.105047 -0.113127,-0.105047 -0.113127,-0.242416 0,-0.137369 0.113127,-0.242416 0.113128,-0.105047 0.30706,-0.105047 h 1.583784 q 0.193932,0 0.30706,0.105047 0.113127,0.105047 0.113127,0.242416 0,0.137369 -0.113127,0.242416 -0.113128,0.105047 -0.30706,0.105047 z m 3.102923,0 q -0.193933,0 -0.30706,-0.105047 -0.113128,-0.105047 -0.113128,-0.242416 0,-0.137369 0.113128,-0.242416 0.113127,-0.105047 0.30706,-0.105047 h 1.583783 q 0.193933,0 0.30706,0.105047 0.113128,0.105047 0.113128,0.242416 0,0.137369 -0.113128,0.242416 -0.113127,0.105047 -0.30706,0.105047 z m -3.102923,-1.034308 q -0.193932,0 -0.30706,-0.105047 -0.113127,-0.105047 -0.113127,-0.242416 0,-0.137369 0.113127,-0.242415 0.113128,-0.105047 0.30706,-0.105047 h 3.652399 q 0.193932,0 0.30706,0.105047 0.113127,0.105046 0.113127,0.242415 0,0.137369 -0.113127,0.242416 -0.113128,0.105047 -0.30706,0.105047 z m 0,-1.034307 q -0.193932,0 -0.30706,-0.105047 -0.113127,-0.105047 -0.113127,-0.242416 0,-0.137369 0.113127,-0.242416 0.113128,-0.105047 0.30706,-0.105047 h 4.686706 q 0.193933,0 0.30706,0.105047 0.113128,0.105047 0.113128,0.242416 0,0.137369 -0.113128,0.242416 -0.113127,0.105047 -0.30706,0.105047 z m 0,-1.034308 q -0.193932,0 -0.30706,-0.105047 -0.113127,-0.105047 -0.113127,-0.242416 0,-0.137368 0.113127,-0.242415 0.113128,-0.105047 0.30706,-0.105047 h 1.583784 q 0.193932,0 0.30706,0.105047 0.113127,0.105047 0.113127,0.242415 0,0.137369 -0.113127,0.242416 -0.113128,0.105047 -0.30706,0.105047 z m 4.13723,0 q -0.193932,0 -0.30706,-0.105047 -0.113127,-0.105047 -0.113127,-0.242416 0,-0.137368 0.113127,-0.242415 0.113128,-0.105047 0.30706,-0.105047 h 1.583784 q 0.193932,0 0.30706,0.105047 0.113127,0.105047 0.113127,0.242415 0,0.137369 -0.113127,0.242416 -0.113128,0.105047 -0.30706,0.105047 z m -4.13723,-1.034307 q -0.193932,0 -0.30706,-0.105047 -0.113127,-0.105047 -0.113127,-0.242416 0,-0.137369 0.113127,-0.242416 0.113128,-0.105047 0.30706,-0.105047 h 1.583784 q 0.193932,0 0.30706,0.105047 0.113127,0.105047 0.113127,0.242416 0,0.137369 -0.113127,0.242416 -0.113128,0.105047 -0.30706,0.105047 z m 4.13723,0 q -0.193932,0 -0.30706,-0.105047 -0.113127,-0.105047 -0.113127,-0.242416 0,-0.137369 0.113127,-0.242416 0.113128,-0.105047 0.30706,-0.105047 h 1.583784 q 0.193932,0 0.30706,0.105047 0.113127,0.105047 0.113127,0.242416 0,0.137369 -0.113127,0.242416 -0.113128,0.105047 -0.30706,0.105047 z m -4.13723,-1.034308 q -0.193932,0 -0.30706,-0.105047 -0.113127,-0.105047 -0.113127,-0.242415 0,-0.137369 0.113127,-0.242416 0.113128,-0.105047 0.30706,-0.105047 h 4.686706 q 0.193933,0 0.30706,0.105047 0.113128,0.105047 0.113128,0.242416 0,0.137368 -0.113128,0.242415 -0.113127,0.105047 -0.30706,0.105047 z"
           style="fill:#00ccff"
           id="path51911" />
      </g>
      <g
         aria-label="HUB"
         transform="matrix(0.86087865,0,0,1.0466063,2.2027807,4.2577645)"
         id="text4766-3"
         style="font-size:8.27446px;line-height:1.25;letter-spacing:0px;word-spacing:0px;stroke-width:0.206861">
        <path
           d="m 36.686052,92.520189 q -0.193933,0 -0.30706,-0.105047 -0.113128,-0.105046 -0.113128,-0.242415 0,-0.137369 0.113128,-0.242416 0.113127,-0.105047 0.30706,-0.105047 h 1.583783 q 0.193933,0 0.30706,0.105047 0.113127,0.105047 0.113127,0.242416 0,0.137369 -0.113127,0.242415 -0.113127,0.105047 -0.30706,0.105047 z m 4.13723,0 q -0.193933,0 -0.30706,-0.105047 -0.113128,-0.105046 -0.113128,-0.242415 0,-0.137369 0.113128,-0.242416 0.113127,-0.105047 0.30706,-0.105047 h 1.583783 q 0.193933,0 0.30706,0.105047 0.113127,0.105047 0.113127,0.242416 0,0.137369 -0.113127,0.242415 -0.113127,0.105047 -0.30706,0.105047 z m -4.13723,-1.034307 q -0.193933,0 -0.30706,-0.105047 -0.113128,-0.105047 -0.113128,-0.242416 0,-0.137369 0.113128,-0.242416 0.113127,-0.105047 0.30706,-0.105047 h 1.583783 q 0.193933,0 0.30706,0.105047 0.113127,0.105047 0.113127,0.242416 0,0.137369 -0.113127,0.242416 -0.113127,0.105047 -0.30706,0.105047 z m 4.13723,0 q -0.193933,0 -0.30706,-0.105047 -0.113128,-0.105047 -0.113128,-0.242416 0,-0.137369 0.113128,-0.242416 0.113127,-0.105047 0.30706,-0.105047 h 1.583783 q 0.193933,0 0.30706,0.105047 0.113127,0.105047 0.113127,0.242416 0,0.137369 -0.113127,0.242416 -0.113127,0.105047 -0.30706,0.105047 z m -4.13723,-1.034308 q -0.193933,0 -0.30706,-0.105047 -0.113128,-0.105046 -0.113128,-0.242415 0,-0.137369 0.113128,-0.242416 0.113127,-0.105047 0.30706,-0.105047 h 1.583783 q 0.193933,0 0.30706,0.105047 0.113127,0.105047 0.113127,0.242416 0,0.137369 -0.113127,0.242415 -0.113127,0.105047 -0.30706,0.105047 z m 4.13723,0 q -0.193933,0 -0.30706,-0.105047 -0.113128,-0.105046 -0.113128,-0.242415 0,-0.137369 0.113128,-0.242416 0.113127,-0.105047 0.30706,-0.105047 h 1.583783 q 0.193933,0 0.30706,0.105047 0.113127,0.105047 0.113127,0.242416 0,0.137369 -0.113127,0.242415 -0.113127,0.105047 -0.30706,0.105047 z m -4.13723,-1.034307 q -0.193933,0 -0.30706,-0.105047 -0.113128,-0.105047 -0.113128,-0.242416 0,-0.137369 0.113128,-0.242416 0.113127,-0.105046 0.30706,-0.105046 h 5.721013 q 0.193933,0 0.30706,0.105046 0.113127,0.105047 0.113127,0.242416 0,0.137369 -0.113127,0.242416 -0.113127,0.105047 -0.30706,0.105047 z m 0,-1.034308 q -0.193933,0 -0.30706,-0.105046 -0.113128,-0.105047 -0.113128,-0.242416 0,-0.137369 0.113128,-0.242416 0.113127,-0.105047 0.30706,-0.105047 h 1.583783 q 0.193933,0 0.30706,0.105047 0.113127,0.105047 0.113127,0.242416 0,0.137369 -0.113127,0.242416 -0.113127,0.105046 -0.30706,0.105046 z m 4.13723,0 q -0.193933,0 -0.30706,-0.105046 -0.113128,-0.105047 -0.113128,-0.242416 0,-0.137369 0.113128,-0.242416 0.113127,-0.105047 0.30706,-0.105047 h 1.583783 q 0.193933,0 0.30706,0.105047 0.113127,0.105047 0.113127,0.242416 0,0.137369 -0.113127,0.242416 -0.113127,0.105046 -0.30706,0.105046 z m -4.13723,-1.034307 q -0.193933,0 -0.30706,-0.105047 -0.113128,-0.105047 -0.113128,-0.242416 0,-0.137369 0.113128,-0.242416 0.113127,-0.105046 0.30706,-0.105046 h 1.583783 q 0.193933,0 0.30706,0.105046 0.113127,0.105047 0.113127,0.242416 0,0.137369 -0.113127,0.242416 -0.113127,0.105047 -0.30706,0.105047 z m 4.13723,0 q -0.193933,0 -0.30706,-0.105047 -0.113128,-0.105047 -0.113128,-0.242416 0,-0.137369 0.113128,-0.242416 0.113127,-0.105046 0.30706,-0.105046 h 1.583783 q 0.193933,0 0.30706,0.105046 0.113127,0.105047 0.113127,0.242416 0,0.137369 -0.113127,0.242416 -0.113127,0.105047 -0.30706,0.105047 z m -4.13723,-1.034308 q -0.193933,0 -0.30706,-0.105046 -0.113128,-0.105047 -0.113128,-0.242416 0,-0.137369 0.113128,-0.242416 0.113127,-0.105047 0.30706,-0.105047 h 1.583783 q 0.193933,0 0.30706,0.105047 0.113127,0.105047 0.113127,0.242416 0,0.137369 -0.113127,0.242416 -0.113127,0.105046 -0.30706,0.105046 z m 4.13723,0 q -0.193933,0 -0.30706,-0.105046 -0.113128,-0.105047 -0.113128,-0.242416 0,-0.137369 0.113128,-0.242416 0.113127,-0.105047 0.30706,-0.105047 h 1.583783 q 0.193933,0 0.30706,0.105047 0.113127,0.105047 0.113127,0.242416 0,0.137369 -0.113127,0.242416 -0.113127,0.105046 -0.30706,0.105046 z"
           style="font-family:C-64;-inkscape-font-specification:C-64;fill:#00d400"
           id="path51932" />
        <path
           d="m 45.994819,92.520189 q -0.193933,0 -0.30706,-0.105047 -0.113127,-0.105046 -0.113127,-0.242415 0,-0.137369 0.113127,-0.242416 0.113127,-0.105047 0.30706,-0.105047 h 3.652398 q 0.193933,0 0.30706,0.105047 0.113128,0.105047 0.113128,0.242416 0,0.137369 -0.113128,0.242415 -0.113127,0.105047 -0.30706,0.105047 z m -1.034307,-1.034307 q -0.193933,0 -0.30706,-0.105047 -0.113128,-0.105047 -0.113128,-0.242416 0,-0.137369 0.113128,-0.242416 0.113127,-0.105047 0.30706,-0.105047 h 1.583783 q 0.193933,0 0.30706,0.105047 0.113127,0.105047 0.113127,0.242416 0,0.137369 -0.113127,0.242416 -0.113127,0.105047 -0.30706,0.105047 z m 4.13723,0 q -0.193933,0 -0.307061,-0.105047 -0.113127,-0.105047 -0.113127,-0.242416 0,-0.137369 0.113127,-0.242416 0.113128,-0.105047 0.307061,-0.105047 h 1.583783 q 0.193932,0 0.30706,0.105047 0.113127,0.105047 0.113127,0.242416 0,0.137369 -0.113127,0.242416 -0.113128,0.105047 -0.30706,0.105047 z m -4.13723,-1.034308 q -0.193933,0 -0.30706,-0.105047 -0.113128,-0.105046 -0.113128,-0.242415 0,-0.137369 0.113128,-0.242416 0.113127,-0.105047 0.30706,-0.105047 h 1.583783 q 0.193933,0 0.30706,0.105047 0.113127,0.105047 0.113127,0.242416 0,0.137369 -0.113127,0.242415 -0.113127,0.105047 -0.30706,0.105047 z m 4.13723,0 q -0.193933,0 -0.307061,-0.105047 -0.113127,-0.105046 -0.113127,-0.242415 0,-0.137369 0.113127,-0.242416 0.113128,-0.105047 0.307061,-0.105047 h 1.583783 q 0.193932,0 0.30706,0.105047 0.113127,0.105047 0.113127,0.242416 0,0.137369 -0.113127,0.242415 -0.113128,0.105047 -0.30706,0.105047 z m -4.13723,-1.034307 q -0.193933,0 -0.30706,-0.105047 -0.113128,-0.105047 -0.113128,-0.242416 0,-0.137369 0.113128,-0.242416 0.113127,-0.105046 0.30706,-0.105046 h 1.583783 q 0.193933,0 0.30706,0.105046 0.113127,0.105047 0.113127,0.242416 0,0.137369 -0.113127,0.242416 -0.113127,0.105047 -0.30706,0.105047 z m 4.13723,0 q -0.193933,0 -0.307061,-0.105047 -0.113127,-0.105047 -0.113127,-0.242416 0,-0.137369 0.113127,-0.242416 0.113128,-0.105046 0.307061,-0.105046 h 1.583783 q 0.193932,0 0.30706,0.105046 0.113127,0.105047 0.113127,0.242416 0,0.137369 -0.113127,0.242416 -0.113128,0.105047 -0.30706,0.105047 z m -4.13723,-1.034308 q -0.193933,0 -0.30706,-0.105046 -0.113128,-0.105047 -0.113128,-0.242416 0,-0.137369 0.113128,-0.242416 0.113127,-0.105047 0.30706,-0.105047 h 1.583783 q 0.193933,0 0.30706,0.105047 0.113127,0.105047 0.113127,0.242416 0,0.137369 -0.113127,0.242416 -0.113127,0.105046 -0.30706,0.105046 z m 4.13723,0 q -0.193933,0 -0.307061,-0.105046 -0.113127,-0.105047 -0.113127,-0.242416 0,-0.137369 0.113127,-0.242416 0.113128,-0.105047 0.307061,-0.105047 h 1.583783 q 0.193932,0 0.30706,0.105047 0.113127,0.105047 0.113127,0.242416 0,0.137369 -0.113127,0.242416 -0.113128,0.105046 -0.30706,0.105046 z m -4.13723,-1.034307 q -0.193933,0 -0.30706,-0.105047 -0.113128,-0.105047 -0.113128,-0.242416 0,-0.137369 0.113128,-0.242416 0.113127,-0.105046 0.30706,-0.105046 h 1.583783 q 0.193933,0 0.30706,0.105046 0.113127,0.105047 0.113127,0.242416 0,0.137369 -0.113127,0.242416 -0.113127,0.105047 -0.30706,0.105047 z m 4.13723,0 q -0.193933,0 -0.307061,-0.105047 -0.113127,-0.105047 -0.113127,-0.242416 0,-0.137369 0.113127,-0.242416 0.113128,-0.105046 0.307061,-0.105046 h 1.583783 q 0.193932,0 0.30706,0.105046 0.113127,0.105047 0.113127,0.242416 0,0.137369 -0.113127,0.242416 -0.113128,0.105047 -0.30706,0.105047 z m -4.13723,-1.034308 q -0.193933,0 -0.30706,-0.105046 -0.113128,-0.105047 -0.113128,-0.242416 0,-0.137369 0.113128,-0.242416 0.113127,-0.105047 0.30706,-0.105047 h 1.583783 q 0.193933,0 0.30706,0.105047 0.113127,0.105047 0.113127,0.242416 0,0.137369 -0.113127,0.242416 -0.113127,0.105046 -0.30706,0.105046 z m 4.13723,0 q -0.193933,0 -0.307061,-0.105046 -0.113127,-0.105047 -0.113127,-0.242416 0,-0.137369 0.113127,-0.242416 0.113128,-0.105047 0.307061,-0.105047 h 1.583783 q 0.193932,0 0.30706,0.105047 0.113127,0.105047 0.113127,0.242416 0,0.137369 -0.113127,0.242416 -0.113128,0.105046 -0.30706,0.105046 z"
           style="font-family:C-64;-inkscape-font-specification:C-64;fill:#00d400"
           id="path51934" />
        <path
           d="m 53.234971,92.520189 q -0.193932,0 -0.30706,-0.105047 -0.113127,-0.105046 -0.113127,-0.242415 0,-0.137369 0.113127,-0.242416 0.113128,-0.105047 0.30706,-0.105047 h 4.686706 q 0.193933,0 0.30706,0.105047 0.113128,0.105047 0.113128,0.242416 0,0.137369 -0.113128,0.242415 -0.113127,0.105047 -0.30706,0.105047 z m 0,-1.034307 q -0.193932,0 -0.30706,-0.105047 -0.113127,-0.105047 -0.113127,-0.242416 0,-0.137369 0.113127,-0.242416 0.113128,-0.105047 0.30706,-0.105047 h 1.583784 q 0.193932,0 0.30706,0.105047 0.113127,0.105047 0.113127,0.242416 0,0.137369 -0.113127,0.242416 -0.113128,0.105047 -0.30706,0.105047 z m 4.13723,0 q -0.193932,0 -0.30706,-0.105047 -0.113127,-0.105047 -0.113127,-0.242416 0,-0.137369 0.113127,-0.242416 0.113128,-0.105047 0.30706,-0.105047 h 1.583784 q 0.193932,0 0.30706,0.105047 0.113127,0.105047 0.113127,0.242416 0,0.137369 -0.113127,0.242416 -0.113128,0.105047 -0.30706,0.105047 z m -4.13723,-1.034308 q -0.193932,0 -0.30706,-0.105047 -0.113127,-0.105046 -0.113127,-0.242415 0,-0.137369 0.113127,-0.242416 0.113128,-0.105047 0.30706,-0.105047 h 1.583784 q 0.193932,0 0.30706,0.105047 0.113127,0.105047 0.113127,0.242416 0,0.137369 -0.113127,0.242415 -0.113128,0.105047 -0.30706,0.105047 z m 4.13723,0 q -0.193932,0 -0.30706,-0.105047 -0.113127,-0.105046 -0.113127,-0.242415 0,-0.137369 0.113127,-0.242416 0.113128,-0.105047 0.30706,-0.105047 h 1.583784 q 0.193932,0 0.30706,0.105047 0.113127,0.105047 0.113127,0.242416 0,0.137369 -0.113127,0.242415 -0.113128,0.105047 -0.30706,0.105047 z m -4.13723,-1.034307 q -0.193932,0 -0.30706,-0.105047 -0.113127,-0.105047 -0.113127,-0.242416 0,-0.137369 0.113127,-0.242416 0.113128,-0.105046 0.30706,-0.105046 h 4.686706 q 0.193933,0 0.30706,0.105046 0.113128,0.105047 0.113128,0.242416 0,0.137369 -0.113128,0.242416 -0.113127,0.105047 -0.30706,0.105047 z m 0,-1.034308 q -0.193932,0 -0.30706,-0.105046 -0.113127,-0.105047 -0.113127,-0.242416 0,-0.137369 0.113127,-0.242416 0.113128,-0.105047 0.30706,-0.105047 h 1.583784 q 0.193932,0 0.30706,0.105047 0.113127,0.105047 0.113127,0.242416 0,0.137369 -0.113127,0.242416 -0.113128,0.105046 -0.30706,0.105046 z m 4.13723,0 q -0.193932,0 -0.30706,-0.105046 -0.113127,-0.105047 -0.113127,-0.242416 0,-0.137369 0.113127,-0.242416 0.113128,-0.105047 0.30706,-0.105047 h 1.583784 q 0.193932,0 0.30706,0.105047 0.113127,0.105047 0.113127,0.242416 0,0.137369 -0.113127,0.242416 -0.113128,0.105046 -0.30706,0.105046 z m -4.13723,-1.034307 q -0.193932,0 -0.30706,-0.105047 -0.113127,-0.105047 -0.113127,-0.242416 0,-0.137369 0.113127,-0.242416 0.113128,-0.105046 0.30706,-0.105046 h 1.583784 q 0.193932,0 0.30706,0.105046 0.113127,0.105047 0.113127,0.242416 0,0.137369 -0.113127,0.242416 -0.113128,0.105047 -0.30706,0.105047 z m 4.13723,0 q -0.193932,0 -0.30706,-0.105047 -0.113127,-0.105047 -0.113127,-0.242416 0,-0.137369 0.113127,-0.242416 0.113128,-0.105046 0.30706,-0.105046 h 1.583784 q 0.193932,0 0.30706,0.105046 0.113127,0.105047 0.113127,0.242416 0,0.137369 -0.113127,0.242416 -0.113128,0.105047 -0.30706,0.105047 z m -4.13723,-1.034308 q -0.193932,0 -0.30706,-0.105046 -0.113127,-0.105047 -0.113127,-0.242416 0,-0.137369 0.113127,-0.242416 0.113128,-0.105047 0.30706,-0.105047 h 4.686706 q 0.193933,0 0.30706,0.105047 0.113128,0.105047 0.113128,0.242416 0,0.137369 -0.113128,0.242416 -0.113127,0.105046 -0.30706,0.105046 z"
           style="font-family:C-64;-inkscape-font-specification:C-64;fill:#00d400"
           id="path51936" />
      </g>
    </g>
  </g>
</svg>
